# xmcd CD database file
#
# Track frame offsets:
#	150
#	23860
#	39342
#	67456
#	89745
#	132219
#	143823
#	161881
#	171978
#	182083
#	192434
#	221392
#	236510
#	249497
#	274075
#
# Disc length: 3908 seconds
#
# Revision: 0
# Processed by: cddbd v1.5.1PL0 Copyright (c) Steve Scherf et al.
# Submitted via: CDex 1.51
#
DISCID=e40f420f
DTITLE=Divers - The way of blues n° 12 - Town Blues
DYEAR=2004
DGENRE=Blues
TTITLE0=Albert Collins - Cold, cold feeling
TTITLE1=Loonie Brooks - Breakfast in bed
TTITLE2=Kenny Neal - Carrying the torch
TTITLE3=Koko Taylor - I'd rather go blind
TTITLE4=Shuggie Otis, Al Cooper - Slow goonbash blues
TTITLE5=Taj Mahal - Chevrolet
TTITLE6=David "Honeyboy" Edwards - My baby's gone
TTITLE7=Bobby Parker - It's hard but it's fair
TTITLE8=Guitar Crusher - Since my baby hits the number
TTITLE9=Otis Spann - Can't do me no good
TTITLE10=Chicken Shack, Stan Webb - When my left eye jumps
TTITLE11=Aynsley Dunbar Retaliation - Warning
TTITLE12=Peter Green, Fleetwood Mac - I believe my time ain't long
TTITLE13=Hound Dog Taylor - Phillip's theme
TTITLE14=George Smith - Someday you're gonna learn
EXTD=YEAR: 2004
EXTT0=
EXTT1=
EXTT2=
EXTT3=
EXTT4=
EXTT5=
EXTT6=
EXTT7=
EXTT8=
EXTT9=
EXTT10=
EXTT11=
EXTT12=
EXTT13=
EXTT14=
PLAYORDER=
